HIERARCHY
ROOT Hips
{
	OFFSET 0.000000 89.005402 0.000000
	CHANNELS 6 Xposition Yposition Zposition Xrotation Yrotation Zrotation
	JOINT Spine
	{
		OFFSET 0.116900 10.681000 0.373400
		CHANNELS 3 Xrotation Yrotation Zrotation
		JOINT Spine1
		{
			OFFSET 0.000000 13.840401 0.053500
			CHANNELS 3 Xrotation Yrotation Zrotation
			JOINT Spine2
			{
				OFFSET 0.000000 14.712700 -0.366200
				CHANNELS 3 Xrotation Yrotation Zrotation
				JOINT Neck
				{
					OFFSET 0.000000 35.415497 -3.314200
					CHANNELS 3 Xrotation Yrotation Zrotation
					JOINT Head
					{
						OFFSET 0.000000 16.899200 1.218300
						CHANNELS 3 Xrotation Yrotation Zrotation
						JOINT HeadTop_End
						{
							OFFSET 0.000000 22.206207 2.192500
							CHANNELS 3 Xrotation Yrotation Zrotation
							End Site
							{
								OFFSET 0.000000 22.314178 0.000000
							}
						}
					}
				}
				JOINT LeftShoulder
				{
					OFFSET 12.896400 26.716293 -4.548400
					CHANNELS 3 Xrotation Yrotation Zrotation
					JOINT LeftArm
					{
						OFFSET 19.027000 -4.857010 -1.718400
						CHANNELS 3 Xrotation Yrotation Zrotation
						JOINT LeftForeArm
						{
							OFFSET 24.179897 0.000000 0.000000
							CHANNELS 3 Xrotation Yrotation Zrotation
							JOINT LeftHand
							{
								OFFSET 27.156403 0.000000 0.000000
								CHANNELS 3 Xrotation Yrotation Zrotation
								JOINT LeftHandIndex1
								{
									OFFSET 16.441200 0.000000 0.000000
									CHANNELS 3 Xrotation Yrotation Zrotation
									JOINT LeftHandIndex2
									{
										OFFSET 4.821899 0.000000 0.000000
										CHANNELS 3 Xrotation Yrotation Zrotation
										JOINT LeftHandIndex3
										{
											OFFSET 6.386497 0.000000 0.000000
											CHANNELS 3 Xrotation Yrotation Zrotation
											JOINT LeftHandIndex4
											{
												OFFSET 5.188988 0.000000 0.000000
												CHANNELS 3 Xrotation Yrotation Zrotation
												End Site
												{
													OFFSET -0.178703 5.185913 0.000177
												}
											}
										}
									}
								}
								JOINT LeftHandThumb1
								{
									OFFSET 6.534897 -5.032593 5.900300
									CHANNELS 3 Xrotation Yrotation Zrotation
									JOINT LeftHandThumb2
									{
										OFFSET 3.818176 -2.204422 2.204423
										CHANNELS 3 Xrotation Yrotation Zrotation
										JOINT LeftHandThumb3
										{
											OFFSET 3.252098 -1.877594 1.877601
											CHANNELS 3 Xrotation Yrotation Zrotation
											JOINT LeftHandThumb4
											{
												OFFSET 5.251778 -3.032120 3.032117
												CHANNELS 3 Xrotation Yrotation Zrotation
												End Site
												{
													OFFSET 0.000023 6.780014 0.000000
												}
											}
										}
									}
								}
							}
						}
					}
				}
				JOINT RightShoulder
				{
					OFFSET -12.896300 26.716293 -4.548400
					CHANNELS 3 Xrotation Yrotation Zrotation
					JOINT RightArm
					{
						OFFSET -19.027000 -4.857010 -1.718400
						CHANNELS 3 Xrotation Yrotation Zrotation
						JOINT RightForeArm
						{
							OFFSET -24.179897 0.000000 0.000000
							CHANNELS 3 Xrotation Yrotation Zrotation
							JOINT RightHand
							{
								OFFSET -27.156403 0.000000 0.000000
								CHANNELS 3 Xrotation Yrotation Zrotation
								JOINT RightHandThumb1
								{
									OFFSET -6.591202 -4.852203 5.988100
									CHANNELS 3 Xrotation Yrotation Zrotation
									JOINT RightHandThumb2
									{
										OFFSET -3.818176 -2.204422 2.204423
										CHANNELS 3 Xrotation Yrotation Zrotation
										JOINT RightHandThumb3
										{
											OFFSET -3.252098 -1.877594 1.877601
											CHANNELS 3 Xrotation Yrotation Zrotation
											JOINT RightHandThumb4
											{
												OFFSET -5.251778 -3.032120 3.032117
												CHANNELS 3 Xrotation Yrotation Zrotation
												End Site
												{
													OFFSET -0.000023 6.780014 0.000000
												}
											}
										}
									}
								}
								JOINT RightHandIndex1
								{
									OFFSET -16.029404 0.000000 0.000000
									CHANNELS 3 Xrotation Yrotation Zrotation
									JOINT RightHandIndex2
									{
										OFFSET -5.213303 0.000000 0.000000
										CHANNELS 3 Xrotation Yrotation Zrotation
										JOINT RightHandIndex3
										{
											OFFSET -6.386528 0.000000 0.000000
											CHANNELS 3 Xrotation Yrotation Zrotation
											JOINT RightHandIndex4
											{
												OFFSET -5.189026 0.000000 0.000000
												CHANNELS 3 Xrotation Yrotation Zrotation
												End Site
												{
													OFFSET 0.236702 5.183624 0.001972
												}
											}
										}
									}
								}
							}
						}
					}
				}
			}
		}
	}
	JOINT LeftUpLeg
	{
		OFFSET 14.073000 -7.904099 -1.463000
		CHANNELS 3 Xrotation Yrotation Zrotation
		JOINT LeftLeg
		{
			OFFSET -0.109806 -34.073280 4.093200
			CHANNELS 3 Xrotation Yrotation Zrotation
			JOINT LeftFoot
			{
				OFFSET 0.109806 -29.899420 -6.319000
				CHANNELS 3 Xrotation Yrotation Zrotation
				JOINT LeftToeBase
				{
					OFFSET 1.551100 -14.988700 20.535801
					CHANNELS 3 Xrotation Yrotation Zrotation
					JOINT LeftToe_End
					{
						OFFSET 0.221200 0.570800 13.248301
						CHANNELS 3 Xrotation Yrotation Zrotation
						End Site
						{
							OFFSET 0.000000 13.262435 0.000000
						}
					}
				}
			}
		}
	}
	JOINT RightUpLeg
	{
		OFFSET -13.839300 -7.904099 -1.463000
		CHANNELS 3 Xrotation Yrotation Zrotation
		JOINT RightLeg
		{
			OFFSET 0.109694 -34.073219 4.093300
			CHANNELS 3 Xrotation Yrotation Zrotation
			JOINT RightFoot
			{
				OFFSET -0.109694 -29.899384 -6.319200
				CHANNELS 3 Xrotation Yrotation Zrotation
				JOINT RightToeBase
				{
					OFFSET -1.551100 -14.988700 20.535801
					CHANNELS 3 Xrotation Yrotation Zrotation
					JOINT RightToe_End
					{
						OFFSET -0.221200 0.570900 13.248299
						CHANNELS 3 Xrotation Yrotation Zrotation
						End Site
						{
							OFFSET 0.000000 13.262440 0.000000
						}
					}
				}
			}
		}
	}
}
MOTION
Frames: 9
Frame Time: 0.033333
0.306761 85.473892 1.438884 -39.513092 -68.096815 -34.498462 6.756149 0.658974 -1.282167 13.541074 1.246682 -3.412951 13.541073 1.246712 -3.412956 -3.351039 14.407451 7.867876 -10.646837 38.445977 -3.529374 0.000000 0.000000 0.000001 2.271644 -13.922352 1.223962 -35.241522 0.859789 -11.615688 -55.643499 -71.539920 -41.432658 -16.076933 -16.538395 -22.361577 -2.830754 -5.275747 -23.487576 -0.617708 -0.720762 -30.088332 -0.000002 -0.000004 -0.000001 -0.000003 0.000004 -0.000000 9.887078 3.693597 -8.464975 4.621954 4.215461 -2.658735 0.000007 0.000011 0.000004 0.000002 -0.000000 -0.000000 -1.373614 9.663721 10.590199 -10.370637 -22.985660 49.500000 -18.992808 27.770998 23.007552 -15.304962 -1.605681 3.962553 -6.350712 4.266327 -10.488621 7.762702 -18.875851 -2.853135 0.000010 -0.000014 0.000006 0.000000 -0.000000 -0.000001 -5.856795 0.343774 -23.672908 0.274048 -1.629633 11.660672 -0.000001 -0.000002 -0.000005 0.000002 0.000001 0.000000 -21.273961 49.161123 31.844968 26.777881 -27.091667 2.667199 3.730461 1.427541 -6.501936 -14.543506 -6.721024 0.678241 -0.000000 -0.000003 -0.000000 7.095075 -7.136049 -20.223232 12.022070 10.710193 -0.123608 -8.170084 -1.352252 15.269554 -1.784967 -0.356699 0.333182 -0.000000 0.000001 -0.000000 
-0.025244 84.896439 1.053339 -25.837547 -63.025495 -20.947377 6.720980 2.038306 -1.298296 13.522063 3.955433 -3.263641 13.522062 3.955428 -3.263644 -3.816991 10.245994 9.029338 -9.056779 36.738081 -2.783829 -0.000000 0.000000 -0.000001 1.998217 -14.167967 -3.117199 -30.886283 1.506000 -20.177012 -47.686339 -65.780391 -34.637447 -23.470075 -14.173550 -22.566112 -0.902007 -6.980957 -3.808420 0.033416 0.804242 -16.418981 -0.000004 -0.000007 0.000001 0.000001 0.000000 0.000000 9.163611 4.814105 -5.499028 -0.335373 0.032561 0.783685 0.000006 0.000010 0.000005 -0.000002 0.000000 0.000001 -1.108028 9.628946 10.409656 -9.473586 -23.332329 50.704961 -17.401819 29.920713 21.580408 -11.816179 0.394534 4.913919 -4.152132 3.457377 -10.548935 8.012222 -19.431999 -2.859258 0.000010 -0.000015 0.000007 0.000001 0.000001 0.000000 -5.750968 0.063927 -22.315953 0.282467 -1.670891 11.241764 0.000001 -0.000001 -0.000003 -0.000002 -0.000003 0.000000 -18.970657 39.582907 24.780094 25.403125 -23.661761 2.064078 2.694380 0.879875 -7.018582 -11.046893 -6.082765 1.188672 0.000000 0.000001 0.000000 6.435914 -9.234306 -19.800300 14.844854 6.056721 -0.020157 -11.237881 -2.139463 15.498575 -1.784967 -0.356700 0.333182 -0.000000 0.000002 0.000000 
-0.245111 83.634117 0.929662 -17.092980 -57.626716 -12.747267 6.337610 3.087824 -1.292640 12.784373 6.036191 -3.100060 12.784374 6.036187 -3.100062 -2.554340 7.329445 9.634136 -9.105655 34.408748 -3.178599 0.000000 -0.000000 0.000001 2.146420 -12.951590 -5.525026 -24.672694 0.834503 -30.038363 -35.600995 -60.995502 -25.825417 -32.735495 -10.328546 -22.364338 0.472870 -7.469685 5.170133 0.204878 1.537710 -10.217999 -0.000002 -0.000007 -0.000002 -0.000000 -0.000000 -0.000002 8.835304 5.314552 -4.142407 -1.633851 0.354848 2.509162 0.000006 0.000010 0.000008 0.000001 -0.000001 -0.000003 -0.797768 9.597108 10.257198 -8.335588 -23.658889 52.022156 -15.798188 32.057155 19.928163 -8.476779 2.394505 5.916899 -3.449962 2.737996 -9.971503 8.120356 -19.672517 -2.861111 0.000009 -0.000014 0.000009 -0.000000 0.000001 -0.000001 -5.536037 -0.257362 -20.371690 0.285684 -1.687206 11.076168 -0.000000 0.000001 -0.000007 0.000002 0.000001 -0.000001 -19.941524 28.477237 20.479130 27.313158 -19.188016 1.772358 0.250309 0.475180 -7.733630 -7.727865 -5.143247 1.311485 -0.000000 -0.000001 -0.000000 4.587093 -10.141842 -19.414121 20.249493 1.556397 0.015704 -15.503734 -3.140396 16.368641 -1.784967 -0.356701 0.333182 0.000000 0.000001 -0.000000 
-0.358985 82.236237 0.934514 -12.120970 -52.566195 -8.555182 5.941085 3.716960 -1.342585 12.006922 7.276874 -3.098373 12.006918 7.276884 -3.098373 -0.751235 4.997733 9.530557 -9.772040 31.963004 -3.230380 0.000000 0.000000 -0.000001 2.169069 -11.242179 -6.491407 -21.295459 0.659025 -36.901019 -26.579930 -58.174743 -19.465998 -31.707910 -7.870430 -18.424444 0.834324 -7.564523 7.351460 0.239604 1.717196 -8.713578 -0.000002 -0.000007 -0.000003 0.000000 0.000002 -0.000002 8.754657 5.434557 -3.812268 -1.961073 0.437469 2.919054 0.000006 0.000008 0.000002 -0.000002 0.000001 -0.000001 -0.452823 9.568823 10.131524 -6.989176 -23.940137 53.428079 -14.191934 34.104907 18.097022 -5.355184 4.341503 6.940080 -3.460975 1.812866 -8.863637 8.169956 -19.782637 -2.861811 0.000010 -0.000014 0.000010 -0.000003 0.000001 -0.000000 -5.112004 -0.626314 -17.364274 0.279109 -1.654454 11.408300 -0.000008 0.000001 -0.000006 0.000001 -0.000000 -0.000000 -22.013290 18.221285 17.805122 30.259777 -15.512678 1.369614 -2.294284 0.553002 -8.547440 -4.942622 -4.200224 1.164539 -0.000000 0.000000 0.000000 3.396937 -10.678704 -18.734055 25.147331 -2.481175 -0.006023 -19.253825 -4.191027 17.774343 -1.784967 -0.356699 0.333182 0.000000 0.000000 0.000000 
-0.408419 81.069267 0.980688 -9.775538 -48.364535 -6.952369 5.720284 4.046768 -1.395270 11.567466 7.904347 -3.087850 11.567462 7.904332 -3.087848 0.484721 3.240316 8.329720 -10.340995 29.427641 -2.480792 0.000000 -0.000000 -0.000002 2.110618 -9.297738 -7.169681 -18.742042 0.718060 -43.218814 -18.132265 -55.607688 -13.543500 -26.607948 -5.724997 -12.731035 0.874626 -7.563567 7.538881 0.239331 1.733347 -8.584653 -0.000003 -0.000008 -0.000005 -0.000001 -0.000001 -0.000001 8.748309 5.445211 -3.783985 -1.994045 0.447369 2.950133 0.000006 0.000014 0.000006 -0.000000 0.000001 -0.000001 -0.087410 9.543910 10.030381 -5.489920 -24.155411 54.877797 -12.607424 35.998789 16.153635 -2.511408 6.183613 7.950998 -4.001091 0.724338 -7.412342 8.173113 -19.789638 -2.861816 0.000010 -0.000015 0.000007 -0.000000 -0.000000 0.000001 -4.513267 -0.970814 -13.635056 0.264578 -1.585396 12.110476 0.000000 -0.000001 -0.000008 -0.000001 0.000001 -0.000001 -24.006191 10.544915 16.245298 33.054663 -13.482356 0.847479 -4.190730 0.812075 -9.090253 -3.030151 -3.493630 0.926622 0.000000 -0.000001 0.000000 3.304143 -11.390945 -17.837457 28.464658 -5.451274 -0.016328 -21.896174 -5.166587 19.124209 -1.784967 -0.356700 0.333182 -0.000000 0.000001 0.000000 
-0.434303 80.227295 1.037823 -8.728582 -45.264155 -6.512996 5.642336 4.230888 -1.408667 11.409635 8.240776 -3.039403 11.409637 8.240785 -3.039406 0.432642 1.661244 6.883439 -9.974661 26.951609 -1.740181 -0.000001 0.000000 -0.000000 1.995194 -7.261587 -7.604310 -16.895979 0.949453 -48.876339 -10.438490 -53.320422 -8.169609 -18.768197 -3.856017 -5.999698 0.677542 -7.492499 6.257143 0.213303 1.629158 -9.469000 -0.000003 -0.000008 -0.000001 0.000000 0.000001 -0.000000 8.796922 5.375555 -3.978148 -1.810055 0.403765 2.702017 0.000010 0.000012 0.000005 0.000001 -0.000001 0.000001 0.281019 9.522114 9.950996 -3.916878 -24.293368 56.308650 -11.085112 37.685302 14.185385 0.002916 7.870317 8.915392 -4.889236 -0.477303 -5.794415 8.142131 -19.720744 -2.861397 0.000011 -0.000014 0.000007 0.000001 -0.000002 0.000001 -3.792731 -1.230270 -9.527975 0.243764 -1.492754 13.054882 0.000002 0.000003 -0.000008 0.000001 -0.000001 0.000001 -26.186440 6.578121 15.713216 35.806321 -13.598479 0.414693 -5.419855 0.923645 -8.943574 -2.319082 -3.216975 0.802955 -0.000000 -0.000003 -0.000000 3.701650 -12.316244 -16.990386 30.428185 -7.149109 0.004829 -23.586668 -5.974486 20.031987 -1.784967 -0.356701 0.333182 0.000000 0.000000 0.000000 
-0.465832 79.643120 1.037878 -8.022540 -43.261230 -6.182523 5.640874 4.408561 -1.438399 11.410002 8.566661 -3.065528 11.410011 8.566652 -3.065527 -0.639964 -0.014056 5.577602 -8.928600 24.496077 -1.287800 0.000001 -0.000000 -0.000001 1.846002 -5.276681 -7.843251 -15.642074 1.288968 -53.759210 -3.689505 -51.349369 -3.469315 -9.509391 -2.252722 1.067267 0.328567 -7.376795 4.031707 0.171448 1.447428 -11.004719 -0.000003 -0.000006 -0.000000 0.000000 -0.000002 0.000001 8.879999 5.253405 -4.314957 -1.486104 0.324677 2.275411 0.000009 0.000014 0.000004 0.000001 -0.000002 0.000002 0.631920 9.503130 9.890484 -2.369774 -24.355577 57.646271 -9.680558 39.123071 12.298636 2.143417 9.352902 9.796329 -5.952809 -1.721076 -4.172725 8.089294 -19.603259 -2.860582 0.000010 -0.000014 0.000007 0.000001 -0.000001 0.000002 -3.022143 -1.370782 -5.389758 0.218596 -1.389330 14.113973 0.000001 0.000002 -0.000005 0.000001 -0.000000 -0.000000 -28.220648 5.196887 15.631974 37.748728 -14.673574 0.008673 -5.702706 0.831328 -8.299581 -2.319077 -3.216986 0.802957 -0.000000 0.000002 0.000000 3.704486 -13.275034 -16.550266 31.854896 -7.802771 0.007230 -24.781589 -6.537166 20.495133 -1.784967 -0.356699 0.333182 0.000000 -0.000000 0.000000 
-0.506310 79.304810 0.935036 -7.367815 -42.135529 -5.619287 5.714149 4.597502 -1.475557 11.563717 8.922723 -3.131468 11.563711 8.922718 -3.131465 -1.840396 -1.472239 3.883473 -8.094359 22.080263 -0.738419 -0.000001 0.000000 0.000000 1.686320 -3.485604 -7.937239 -14.865832 1.670595 -57.753894 1.918828 -49.738158 0.426589 -0.129135 -0.932626 7.774958 -0.087110 -7.242095 1.387809 0.123568 1.230988 -12.829810 -0.000005 -0.000009 0.000000 0.000001 0.000001 -0.000001 8.977140 5.106786 -4.714681 -1.099232 0.228224 1.770796 0.000007 0.000011 0.000005 0.000003 0.000001 -0.000000 0.942737 9.486854 9.846257 -0.963172 -24.357134 58.811672 -8.461678 40.281724 10.614085 3.871453 10.584440 10.554556 -7.030783 -2.910889 -2.694049 8.026913 -19.464434 -2.859471 0.000011 -0.000014 0.000009 0.000000 0.000001 0.000001 -2.284701 -1.393619 -1.568697 0.191888 -1.287629 15.159936 0.000004 -0.000001 -0.000006 0.000006 -0.000000 -0.000000 -29.487921 4.491127 15.410650 38.477884 -15.300952 -0.318095 -5.581706 0.801050 -7.983838 -2.319083 -3.216992 0.802953 -0.000000 -0.000001 -0.000000 3.166621 -14.108114 -16.585786 32.986416 -7.873445 -0.012705 -25.625096 -6.818899 20.634618 -1.784967 -0.356700 0.333182 0.000000 -0.000001 -0.000000 
-0.559087 79.248817 0.782787 -6.861078 -41.696843 -4.957345 5.775230 4.711612 -1.486928 11.690784 9.143875 -3.159889 11.690788 9.143878 -3.159891 -2.721264 -2.238108 1.868957 -7.607465 20.220685 -0.113888 -0.000000 -0.000000 0.000000 1.540548 -2.030445 -7.938920 -14.452971 2.027267 -60.747067 6.186622 -48.533873 3.384450 8.104386 0.066128 13.430123 -0.485525 -7.114088 -1.149661 0.078945 1.022829 -14.582143 -0.000007 -0.000009 0.000002 0.000000 0.000001 -0.000002 9.068934 4.964577 -5.097917 -0.726701 0.133651 1.288058 0.000006 0.000010 0.000007 -0.000001 -0.000000 0.000004 1.190593 9.473852 9.816117 0.181490 -24.324061 59.727422 -7.503430 41.138472 9.260349 5.151820 11.519662 11.148466 -7.973971 -3.927763 -1.489854 7.967218 -19.331524 -2.858275 0.000010 -0.000014 0.000007 -0.000000 0.000001 -0.000001 -1.665073 -1.334694 1.587619 0.167288 -1.200059 16.065199 0.000001 0.000003 -0.000005 -0.000000 -0.000000 0.000000 -29.897951 4.320533 15.061134 38.088970 -15.482128 -0.481904 -5.135556 0.806094 -8.002608 -2.319086 -3.216986 0.802953 0.000000 -0.000002 0.000000 2.540643 -14.632451 -16.882643 33.517152 -7.807621 -0.046962 -25.983105 -6.827908 20.602154 -1.784967 -0.356700 0.333182 0.000000 0.000002 0.000000 
